<svg width="4" height="20" viewBox="0 0 4 20" fill="none" xmlns="http://www.w3.org/2000/svg">
<path d="M0 1.9982C0 1.72017 -2.06754e-07 1.58016 0.0160014 1.46415C0.0672133 1.09818 0.236265 0.758863 0.497564 0.497564C0.758862 0.236265 1.09818 0.0672137 1.46415 0.0160019C1.58216 2.70084e-07 1.72017 0 1.9982 0C2.27623 0 2.41824 2.70084e-07 2.53225 0.0160019C2.89822 0.0672137 3.23754 0.236265 3.49884 0.497564C3.76013 0.758863 3.92919 1.09818 3.9804 1.46415C3.9964 1.58016 3.9964 1.72017 3.9964 1.9982C3.9964 2.27623 3.9964 2.41624 3.9804 2.53225C3.92919 2.89822 3.76013 3.23754 3.49884 3.49884C3.23754 3.76013 2.89822 3.92919 2.53225 3.9804C2.41624 3.9964 2.27623 3.9964 1.9982 3.9964C1.72017 3.9964 1.58016 3.9964 1.46415 3.9804C1.09818 3.92919 0.758862 3.76013 0.497564 3.49884C0.236265 3.23754 0.0672133 2.89822 0.0160014 2.53225C-2.06754e-07 2.41624 0 2.27623 0 1.9982ZM0 9.999C0 9.72097 -2.06754e-07 9.58096 0.0160014 9.46495C0.0672133 9.09898 0.236265 8.75966 0.497564 8.49836C0.758862 8.23707 1.09818 8.06801 1.46415 8.0168C1.58216 8.0008 1.72017 8.0008 1.9982 8.0008C2.27623 8.0008 2.41824 8.0008 2.53225 8.0168C2.89822 8.06801 3.23754 8.23707 3.49884 8.49836C3.76013 8.75966 3.92919 9.09898 3.9804 9.46495C3.9964 9.58096 3.9964 9.72097 3.9964 9.999C3.9964 10.277 3.9964 10.417 3.9804 10.5331C3.92919 10.899 3.76013 11.2383 3.49884 11.4996C3.23754 11.7609 2.89822 11.93 2.53225 11.9812C2.41624 11.9972 2.27623 11.9972 1.9982 11.9972C1.72017 11.9972 1.58016 11.9972 1.46415 11.9812C1.09818 11.93 0.758862 11.7609 0.497564 11.4996C0.236265 11.2383 0.0672133 10.899 0.0160014 10.5331C-2.06754e-07 10.417 0 10.277 0 9.999ZM0 17.9998C0 17.7218 -2.06754e-07 17.5818 0.0160014 17.4657C0.0672133 17.0998 0.236265 16.7605 0.497564 16.4992C0.758862 16.2379 1.09818 16.0688 1.46415 16.0176C1.58216 16.0016 1.72017 16.0016 1.9982 16.0016C2.27623 16.0016 2.41824 16.0016 2.53225 16.0176C2.89822 16.0688 3.23754 16.2379 3.49884 16.4992C3.76013 16.7605 3.92919 17.0998 3.9804 17.4657C3.9964 17.5818 3.9964 17.7218 3.9964 17.9998C3.9964 18.2778 3.9964 18.4178 3.9804 18.5359C3.92919 18.9018 3.76013 19.2411 3.49884 19.5024C3.23754 19.7637 2.89822 19.9328 2.53225 19.984C2.41624 20 2.27623 20 2.0002 20C1.72417 20 1.58216 20 1.46615 19.984C1.10018 19.9328 0.760863 19.7637 0.499565 19.5024C0.238266 19.2411 0.0692133 18.9018 0.0180014 18.5359C-3.50177e-07 18.4198 0 18.2798 0 17.9998Z" fill="white"/>
</svg>
